<?xml version="1.0" encoding="utf-8"?>
<!-- Svg Vector Icons : http://www.onlinewebfonts.com/icon -->
<!DOCTYPE svg PUBLIC "-//W3C//DTD SVG 1.1//EN" "http://www.w3.org/Graphics/SVG/1.1/DTD/svg11.dtd">
<svg fill="#872434" version="1.1" xmlns="http://www.w3.org/2000/svg" xmlns:xlink="http://www.w3.org/1999/xlink" x="0px" y="0px" viewBox="0 0 1000 1000" enable-background="new 0 0 1000 1000" xml:space="preserve">
<metadata> Svg Vector Icons : http://www.onlinewebfonts.com/icon </metadata>
<g><path d="M990,500c0-270.5-219.4-489.7-490-489.7C229.4,10.3,10,229.5,10,500c0,270.5,219.4,489.7,490,489.7C770.6,989.7,990,770.5,990,500L990,500L990,500L990,500z M328.6,222.9l73.2,124.2c3.3,6.5,1.8,15.9-3.3,21.1l-36.6,36.6c-5.1,5.1-9.4,15.2-9.5,22.5c0,0-0.5,46.7,86.4,133.6c86.9,86.9,133.8,86.4,133.8,86.4c7.3-0.1,17.4-4.3,22.5-9.4l31.2-31.2c5.1-5.1,14.7-6.8,21.3-3.8l129,68.5c6.6,3,7.8,9.7,2.7,14.8l-84.8,85c-5.1,5.1-15.2,10.1-22.4,11.1c0,0-124,16.6-297.6-157C200.7,451.7,217.3,327.8,217.3,327.8c1-7.2,5.9-17.2,11.1-22.4l84.9-84.9C318.4,215.4,325.3,216.5,328.6,222.9L328.6,222.9L328.6,222.9L328.6,222.9z M561.1,526.2c-4.6-18.2-13.8-35.5-28.1-49.7c-14.3-14.3-31.7-23.6-50.1-28.2v-34.7c28.4,3.6,54.7,16.3,75.2,36.7c20.8,20.7,33.6,47.2,37.1,75.8L561.1,526.2L561.1,526.2L561.1,526.2L561.1,526.2z M482.9,266l0-40.8c155.7,3,297.9,145.3,300.2,301l-39.9,0C735.5,386.6,623.1,274.4,482.9,266L482.9,266L482.9,266L482.9,266z M482.9,360.2l0-40.9c110.8,8.2,199.4,96.6,207,206.9h-41.2C641.2,438.4,571,368.2,482.9,360.2L482.9,360.2L482.9,360.2z M482.9,360.2L482.9,360.2z"/></g>
</svg>