<?xml version="1.0" encoding="UTF-8"?>
<svg xmlns="http://www.w3.org/2000/svg" xmlns:xlink="http://www.w3.org/1999/xlink" viewBox="0 0 100 100" width="100px" height="100px">
<g id="surface16689368">
<path style=" stroke:none;fill-rule:nonzero;fill:#872434;fill-opacity:1;" d="M 25 12.5 C 18.144531 12.5 12.5 18.144531 12.5 25 L 12.5 75 C 12.5 81.855469 18.144531 87.5 25 87.5 L 75 87.5 C 81.855469 87.5 87.5 81.855469 87.5 75 L 87.5 25 C 87.5 18.144531 81.855469 12.5 75 12.5 Z M 25 20.832031 L 75 20.832031 C 77.355469 20.832031 79.167969 22.644531 79.167969 25 L 79.167969 75 C 79.167969 77.355469 77.355469 79.167969 75 79.167969 L 25 79.167969 C 22.644531 79.167969 20.832031 77.355469 20.832031 75 L 20.832031 25 C 20.832031 22.644531 22.644531 20.832031 25 20.832031 Z M 50 29.167969 L 50 58.332031 C 50 60.6875 48.1875 62.5 45.832031 62.5 C 43.480469 62.5 41.667969 60.6875 41.667969 58.332031 C 41.667969 55.980469 43.480469 54.167969 45.832031 54.167969 L 45.832031 45.832031 C 38.980469 45.832031 33.332031 51.480469 33.332031 58.332031 C 33.332031 65.1875 38.980469 70.832031 45.832031 70.832031 C 52.6875 70.832031 58.332031 65.1875 58.332031 58.332031 L 58.332031 42.636719 C 60.902344 44.464844 63.578125 45.832031 66.667969 45.832031 L 66.667969 37.5 C 66.46875 37.5 63.59375 36.585938 61.589844 34.839844 C 59.582031 33.089844 58.332031 30.894531 58.332031 29.167969 Z M 50 29.167969 "/>
</g>
</svg>
