<?xml version="1.0" encoding="UTF-8"?>
<svg xmlns="http://www.w3.org/2000/svg" xmlns:xlink="http://www.w3.org/1999/xlink" viewBox="0 0 100 100" width="100px" height="100px">
<g id="surface16677274">
<path style=" stroke:none;fill-rule:nonzero;fill:#872434;fill-opacity:1;" d="M 95.339844 73.335938 C 91.597656 66.601562 81.953125 58.503906 77.972656 54.980469 C 76.882812 54.015625 76.765625 52.347656 77.757812 51.28125 C 85.355469 43.117188 91.429688 33.734375 93.523438 28.066406 C 94.445312 25.5625 92.535156 22.917969 89.84375 22.917969 L 82.023438 22.917969 C 79.449219 22.917969 77.941406 23.839844 77.222656 25.316406 C 70.90625 38.253906 65.488281 43.855469 61.699219 47.128906 C 59.574219 48.960938 56.265625 47.441406 56.265625 44.652344 C 56.265625 39.277344 56.265625 32.328125 56.265625 27.402344 C 56.265625 25.011719 54.308594 23.078125 51.898438 23.078125 L 37.617188 22.917969 C 35.820312 22.917969 34.792969 24.953125 35.871094 26.378906 L 38.230469 29.765625 C 39.117188 30.9375 39.597656 32.363281 39.597656 33.828125 L 39.582031 49.074219 C 39.582031 51.726562 36.367188 53.023438 34.460938 51.164062 C 28.003906 44.878906 22.402344 32.039062 20.386719 25.898438 C 19.800781 24.121094 18.136719 22.921875 16.25 22.917969 L 8.546875 22.898438 C 5.660156 22.898438 3.546875 25.636719 4.332031 28.394531 C 11.367188 53.097656 25.808594 76.597656 51.542969 79.144531 C 54.078125 79.394531 56.265625 77.355469 56.265625 74.828125 L 56.265625 66.816406 C 56.265625 64.515625 58.066406 62.542969 60.382812 62.484375 C 60.464844 62.480469 60.546875 62.480469 60.628906 62.480469 C 67.433594 62.480469 75.054688 72.386719 77.722656 77.019531 C 78.488281 78.355469 79.921875 79.167969 81.472656 79.167969 L 91.832031 79.167969 C 94.855469 79.167969 96.796875 75.960938 95.339844 73.335938 Z M 95.339844 73.335938 "/>
</g>
</svg>
